<svg xmlns="http://www.w3.org/2000/svg" xmlns:xlink="http://www.w3.org/1999/xlink" width="500" zoomAndPan="magnify" viewBox="0 0 375 374.999991" height="500" preserveAspectRatio="xMidYMid meet" version="1.0"><defs><clipPath id="43578bd839"><path d="M 14.738281 57.359375 L 209 57.359375 L 209 316 L 14.738281 316 Z M 14.738281 57.359375 " clip-rule="nonzero"/></clipPath></defs><g clip-path="url(#43578bd839)"><path fill="#8c6cab" d="M 187.171875 57.554688 C 184.757812 57.46875 182.398438 57.785156 180.089844 58.5 C 177.785156 59.214844 175.660156 60.289062 173.714844 61.722656 L 23.714844 168.964844 C 23.023438 169.457031 22.367188 169.992188 21.738281 170.566406 C 21.109375 171.136719 20.519531 171.746094 19.964844 172.390625 C 19.410156 173.03125 18.894531 173.707031 18.417969 174.410156 C 17.945312 175.117188 17.511719 175.847656 17.125 176.601562 C 16.734375 177.359375 16.394531 178.132812 16.097656 178.929688 C 15.800781 179.726562 15.554688 180.539062 15.351562 181.367188 C 15.152344 182.191406 15.003906 183.027344 14.902344 183.871094 C 14.800781 184.714844 14.75 185.5625 14.75 186.414062 C 14.75 187.261719 14.800781 188.109375 14.902344 188.953125 C 15.003906 189.796875 15.152344 190.632812 15.351562 191.457031 C 15.554688 192.285156 15.800781 193.097656 16.097656 193.894531 C 16.394531 194.691406 16.734375 195.464844 17.125 196.222656 C 17.511719 196.976562 17.945312 197.707031 18.417969 198.414062 C 18.894531 199.117188 19.410156 199.792969 19.964844 200.433594 C 20.519531 201.078125 21.109375 201.6875 21.738281 202.257812 C 22.367188 202.832031 23.023438 203.367188 23.714844 203.859375 L 173.714844 311.101562 C 174.285156 311.535156 174.875 311.9375 175.484375 312.3125 C 176.09375 312.683594 176.722656 313.027344 177.363281 313.335938 C 178.007812 313.648438 178.667969 313.925781 179.339844 314.171875 C 180.007812 314.414062 180.691406 314.625 181.382812 314.800781 C 182.078125 314.980469 182.777344 315.121094 183.484375 315.226562 C 184.191406 315.332031 184.902344 315.402344 185.613281 315.4375 C 186.328125 315.472656 187.042969 315.472656 187.757812 315.4375 C 188.46875 315.402344 189.179688 315.328125 189.886719 315.222656 C 190.59375 315.113281 191.292969 314.972656 191.984375 314.792969 C 192.679688 314.617188 193.359375 314.40625 194.03125 314.160156 C 194.703125 313.914062 195.359375 313.636719 196.003906 313.324219 C 196.648438 313.011719 197.273438 312.667969 197.882812 312.292969 C 198.492188 311.917969 199.082031 311.515625 199.648438 311.082031 C 200.21875 310.648438 200.765625 310.1875 201.285156 309.699219 C 201.808594 309.210938 202.304688 308.699219 202.777344 308.164062 C 203.25 307.625 203.691406 307.0625 204.109375 306.480469 C 204.523438 305.898438 204.910156 305.296875 205.265625 304.675781 C 205.621094 304.058594 205.941406 303.421875 206.234375 302.765625 C 206.527344 302.113281 206.785156 301.449219 207.011719 300.769531 C 207.234375 300.089844 207.425781 299.402344 207.582031 298.703125 C 207.738281 298.003906 207.859375 297.300781 207.945312 296.589844 C 208.03125 295.878906 208.082031 295.167969 208.097656 294.453125 C 208.109375 293.734375 208.089844 293.023438 208.03125 292.308594 C 207.976562 291.59375 207.882812 290.886719 207.753906 290.183594 C 207.628906 289.480469 207.464844 288.785156 207.269531 288.09375 C 207.070312 287.40625 206.839844 286.730469 206.574219 286.066406 C 206.308594 285.402344 206.011719 284.753906 205.683594 284.117188 C 205.355469 283.484375 204.992188 282.867188 204.601562 282.269531 C 204.210938 281.667969 203.789062 281.09375 203.339844 280.535156 C 202.890625 279.980469 202.414062 279.445312 201.914062 278.9375 C 201.410156 278.429688 200.882812 277.945312 200.332031 277.488281 C 199.785156 277.035156 199.210938 276.605469 198.617188 276.207031 L 73.019531 186.414062 L 198.617188 96.617188 C 199.535156 95.980469 200.402344 95.273438 201.210938 94.5 C 202.019531 93.726562 202.761719 92.894531 203.441406 92.007812 C 204.117188 91.117188 204.722656 90.179688 205.253906 89.195312 C 205.789062 88.210938 206.238281 87.191406 206.613281 86.136719 C 206.984375 85.082031 207.273438 84.003906 207.476562 82.902344 C 207.679688 81.800781 207.796875 80.691406 207.828125 79.574219 C 207.859375 78.453125 207.800781 77.339844 207.65625 76.230469 C 207.515625 75.121094 207.285156 74.027344 206.96875 72.953125 C 206.65625 71.878906 206.257812 70.835938 205.78125 69.824219 C 205.304688 68.8125 204.75 67.84375 204.121094 66.917969 C 203.492188 65.992188 202.792969 65.121094 202.027344 64.308594 C 201.261719 63.492188 200.4375 62.738281 199.554688 62.050781 C 198.671875 61.367188 197.742188 60.753906 196.761719 60.210938 C 195.785156 59.671875 194.769531 59.207031 193.71875 58.828125 C 192.667969 58.445312 191.59375 58.148438 190.492188 57.933594 C 189.394531 57.71875 188.289062 57.59375 187.171875 57.554688 Z M 187.171875 57.554688 " fill-opacity="1" fill-rule="nonzero"/></g></svg>