<svg xmlns="http://www.w3.org/2000/svg" xmlns:xlink="http://www.w3.org/1999/xlink" width="500" zoomAndPan="magnify" viewBox="0 0 375 374.999991" height="500" preserveAspectRatio="xMidYMid meet" version="1.0"><defs><g/><clipPath id="f2dab248e9"><path d="M 305.582031 154.363281 L 321.332031 154.363281 L 321.332031 170.113281 L 305.582031 170.113281 Z M 305.582031 154.363281 " clip-rule="nonzero"/></clipPath><clipPath id="d66a76213f"><path d="M 25.664062 154.363281 L 76.316406 154.363281 L 76.316406 165.117188 L 25.664062 165.117188 Z M 25.664062 154.363281 " clip-rule="nonzero"/></clipPath><clipPath id="e1666cfdbf"><path d="M 74.265625 165.117188 L 27.691406 165.117188 C 26.574219 165.117188 25.664062 164.207031 25.664062 163.089844 L 25.664062 156.390625 C 25.664062 155.273438 26.574219 154.363281 27.691406 154.363281 L 74.265625 154.363281 C 75.382812 154.363281 76.292969 155.273438 76.292969 156.390625 L 76.292969 163.089844 C 76.292969 164.207031 75.382812 165.117188 74.265625 165.117188 " clip-rule="nonzero"/></clipPath><clipPath id="94cd20eb20"><path d="M 32.847656 169.851562 L 76.472656 169.851562 L 76.472656 180.605469 L 32.847656 180.605469 Z M 32.847656 169.851562 " clip-rule="nonzero"/></clipPath><clipPath id="9789836601"><path d="M 74.265625 180.605469 L 34.875 180.605469 C 33.757812 180.605469 32.847656 179.695312 32.847656 178.578125 L 32.847656 171.878906 C 32.847656 170.761719 33.757812 169.851562 34.875 169.851562 L 74.265625 169.851562 C 75.382812 169.851562 76.292969 170.761719 76.292969 171.878906 L 76.292969 178.578125 C 76.292969 179.695312 75.382812 180.605469 74.265625 180.605469 " clip-rule="nonzero"/></clipPath><clipPath id="2c52608a59"><path d="M 44.074219 185.34375 L 76.328125 185.34375 L 76.328125 196.09375 L 44.074219 196.09375 Z M 44.074219 185.34375 " clip-rule="nonzero"/></clipPath><clipPath id="7c3219780d"><path d="M 74.265625 196.09375 L 46.101562 196.09375 C 44.984375 196.09375 44.074219 195.183594 44.074219 194.066406 L 44.074219 187.367188 C 44.074219 186.25 44.984375 185.34375 46.101562 185.34375 L 74.265625 185.34375 C 75.382812 185.34375 76.292969 186.25 76.292969 187.367188 L 76.292969 194.066406 C 76.292969 195.183594 75.382812 196.09375 74.265625 196.09375 " clip-rule="nonzero"/></clipPath><clipPath id="4363a15a75"><path d="M 50.808594 200.832031 L 76.445312 200.832031 L 76.445312 211.582031 L 50.808594 211.582031 Z M 50.808594 200.832031 " clip-rule="nonzero"/></clipPath><clipPath id="f9c585e4f8"><path d="M 74.265625 211.582031 L 52.835938 211.582031 C 51.71875 211.582031 50.808594 210.671875 50.808594 209.554688 L 50.808594 202.855469 C 50.808594 201.738281 51.71875 200.832031 52.835938 200.832031 L 74.265625 200.832031 C 75.382812 200.832031 76.292969 201.738281 76.292969 202.855469 L 76.292969 209.554688 C 76.292969 210.671875 75.382812 211.582031 74.265625 211.582031 " clip-rule="nonzero"/></clipPath></defs><g fill="#ffffff" fill-opacity="1"><g transform="translate(82.338449, 198.743526)"><g><path d="M 0.40625 -33.796875 L 0.40625 -42.25 L 30.109375 -42.25 L 30.109375 -33.796875 L 20.078125 -33.796875 L 20.078125 0 L 10.453125 0 L 10.453125 -33.796875 Z M 0.40625 -33.796875 "/></g></g></g><g fill="#ffffff" fill-opacity="1"><g transform="translate(108.039068, 198.743526)"><g><path d="M 4.859375 -3.25 C 2.398438 -5.925781 1.171875 -9.207031 1.171875 -13.09375 C 1.171875 -16.988281 2.398438 -20.285156 4.859375 -22.984375 C 7.316406 -25.679688 10.441406 -27.03125 14.234375 -27.03125 C 17.710938 -27.03125 20.582031 -25.941406 22.84375 -23.765625 L 22.84375 -26.265625 L 31.90625 -26.265625 L 31.90625 0 L 22.9375 0 L 22.9375 -2.96875 L 22.84375 -2.96875 C 20.582031 -0.476562 17.710938 0.765625 14.234375 0.765625 C 10.441406 0.765625 7.316406 -0.570312 4.859375 -3.25 Z M 12.5625 -17.5625 C 11.382812 -16.40625 10.796875 -14.921875 10.796875 -13.109375 C 10.796875 -11.296875 11.359375 -9.816406 12.484375 -8.671875 C 13.617188 -7.535156 15.109375 -6.96875 16.953125 -6.96875 C 18.722656 -6.96875 20.179688 -7.546875 21.328125 -8.703125 C 22.472656 -9.867188 23.046875 -11.335938 23.046875 -13.109375 C 23.046875 -14.921875 22.457031 -16.40625 21.28125 -17.5625 C 20.101562 -18.71875 18.660156 -19.296875 16.953125 -19.296875 C 15.210938 -19.296875 13.75 -18.71875 12.5625 -17.5625 Z M 12.5625 -17.5625 "/></g></g></g><g fill="#ffffff" fill-opacity="1"><g transform="translate(138.194025, 198.743526)"><g><path d="M 14.484375 -27.03125 C 15.992188 -27.03125 17.476562 -26.859375 18.9375 -26.515625 C 20.40625 -26.179688 21.5 -25.84375 22.21875 -25.5 L 23.296875 -24.984375 L 20.328125 -19.046875 C 18.273438 -20.140625 16.328125 -20.6875 14.484375 -20.6875 C 13.460938 -20.6875 12.738281 -20.570312 12.3125 -20.34375 C 11.882812 -20.125 11.671875 -19.707031 11.671875 -19.09375 C 11.671875 -18.957031 11.6875 -18.820312 11.71875 -18.6875 C 11.757812 -18.550781 11.828125 -18.421875 11.921875 -18.296875 C 12.023438 -18.179688 12.117188 -18.082031 12.203125 -18 C 12.296875 -17.914062 12.441406 -17.820312 12.640625 -17.71875 C 12.847656 -17.613281 13.007812 -17.535156 13.125 -17.484375 C 13.25 -17.429688 13.445312 -17.351562 13.71875 -17.25 C 13.988281 -17.15625 14.191406 -17.082031 14.328125 -17.03125 C 14.472656 -16.976562 14.707031 -16.898438 15.03125 -16.796875 C 15.351562 -16.691406 15.597656 -16.625 15.765625 -16.59375 C 16.828125 -16.28125 17.75 -15.9375 18.53125 -15.5625 C 19.320312 -15.1875 20.148438 -14.675781 21.015625 -14.03125 C 21.890625 -13.382812 22.566406 -12.566406 23.046875 -11.578125 C 23.523438 -10.585938 23.765625 -9.457031 23.765625 -8.1875 C 23.765625 -2.21875 19.613281 0.765625 11.3125 0.765625 C 9.4375 0.765625 7.65625 0.476562 5.96875 -0.09375 C 4.28125 -0.675781 3.054688 -1.257812 2.296875 -1.84375 L 1.171875 -2.765625 L 4.859375 -8.953125 C 5.140625 -8.722656 5.5 -8.441406 5.9375 -8.109375 C 6.382812 -7.785156 7.1875 -7.34375 8.34375 -6.78125 C 9.507812 -6.21875 10.515625 -5.9375 11.359375 -5.9375 C 13.242188 -5.9375 14.1875 -6.566406 14.1875 -7.828125 C 14.1875 -8.410156 13.945312 -8.863281 13.46875 -9.1875 C 12.988281 -9.507812 12.175781 -9.875 11.03125 -10.28125 C 9.882812 -10.695312 8.988281 -11.078125 8.34375 -11.421875 C 6.707031 -12.273438 5.410156 -13.238281 4.453125 -14.3125 C 3.492188 -15.382812 3.015625 -16.8125 3.015625 -18.59375 C 3.015625 -21.25 4.046875 -23.316406 6.109375 -24.796875 C 8.179688 -26.285156 10.972656 -27.03125 14.484375 -27.03125 Z M 14.484375 -27.03125 "/></g></g></g><g fill="#ffffff" fill-opacity="1"><g transform="translate(158.569926, 198.743526)"><g><path d="M 33.078125 -26.265625 L 20.578125 -13.71875 L 34.3125 0 L 22.625 0 L 12.140625 -10.5 L 12.140625 0 L 3.078125 0 L 3.078125 -44.03125 L 12.140625 -44.03125 L 12.140625 -17.109375 L 21.296875 -26.265625 Z M 33.078125 -26.265625 "/></g></g></g><g fill="#ffffff" fill-opacity="1"><g transform="translate(186.830508, 198.743526)"><g><path d="M 38 0 L 36 -25.03125 L 35.734375 -25.03125 L 27.09375 -0.25 L 21.359375 -0.25 L 12.703125 -25.03125 L 12.4375 -25.03125 L 10.453125 0 L 0.8125 0 L 4.609375 -42.25 L 14.84375 -42.25 L 24.21875 -17.875 L 33.59375 -42.25 L 43.828125 -42.25 L 47.625 0 Z M 38 0 "/></g></g></g><g fill="#ffffff" fill-opacity="1"><g transform="translate(230.450874, 198.743526)"><g><path d="M 4.859375 -3.25 C 2.398438 -5.925781 1.171875 -9.207031 1.171875 -13.09375 C 1.171875 -16.988281 2.398438 -20.285156 4.859375 -22.984375 C 7.316406 -25.679688 10.441406 -27.03125 14.234375 -27.03125 C 17.710938 -27.03125 20.582031 -25.941406 22.84375 -23.765625 L 22.84375 -26.265625 L 31.90625 -26.265625 L 31.90625 0 L 22.9375 0 L 22.9375 -2.96875 L 22.84375 -2.96875 C 20.582031 -0.476562 17.710938 0.765625 14.234375 0.765625 C 10.441406 0.765625 7.316406 -0.570312 4.859375 -3.25 Z M 12.5625 -17.5625 C 11.382812 -16.40625 10.796875 -14.921875 10.796875 -13.109375 C 10.796875 -11.296875 11.359375 -9.816406 12.484375 -8.671875 C 13.617188 -7.535156 15.109375 -6.96875 16.953125 -6.96875 C 18.722656 -6.96875 20.179688 -7.546875 21.328125 -8.703125 C 22.472656 -9.867188 23.046875 -11.335938 23.046875 -13.109375 C 23.046875 -14.921875 22.457031 -16.40625 21.28125 -17.5625 C 20.101562 -18.71875 18.660156 -19.296875 16.953125 -19.296875 C 15.210938 -19.296875 13.75 -18.71875 12.5625 -17.5625 Z M 12.5625 -17.5625 "/></g></g></g><g fill="#ffffff" fill-opacity="1"><g transform="translate(260.605825, 198.743526)"><g><path d="M 4.609375 -26.265625 L 4.609375 -36.046875 L 13.671875 -36.046875 L 13.671875 -26.265625 L 19.203125 -26.265625 L 19.203125 -19.359375 L 13.671875 -19.359375 L 13.671875 -11.015625 C 13.671875 -8.585938 14.351562 -7.375 15.71875 -7.375 C 16.0625 -7.375 16.421875 -7.441406 16.796875 -7.578125 C 17.171875 -7.710938 17.460938 -7.847656 17.671875 -7.984375 L 17.96875 -8.1875 L 20.21875 -0.875 C 18.28125 0.21875 16.0625 0.765625 13.5625 0.765625 C 11.863281 0.765625 10.398438 0.46875 9.171875 -0.125 C 7.941406 -0.726562 7.007812 -1.53125 6.375 -2.53125 C 5.738281 -3.539062 5.285156 -4.597656 5.015625 -5.703125 C 4.742188 -6.816406 4.609375 -8.003906 4.609375 -9.265625 L 4.609375 -19.359375 L 0.8125 -19.359375 L 0.8125 -26.265625 Z M 4.609375 -26.265625 "/></g></g></g><g fill="#ffffff" fill-opacity="1"><g transform="translate(276.015386, 198.743526)"><g><path d="M 29.640625 -11.875 L 10.59375 -11.875 C 10.59375 -10.03125 11.191406 -8.664062 12.390625 -7.78125 C 13.585938 -6.894531 14.882812 -6.453125 16.28125 -6.453125 C 17.75 -6.453125 18.910156 -6.644531 19.765625 -7.03125 C 20.617188 -7.425781 21.59375 -8.207031 22.6875 -9.375 L 29.234375 -6.09375 C 26.503906 -1.519531 21.960938 0.765625 15.609375 0.765625 C 11.648438 0.765625 8.253906 -0.585938 5.421875 -3.296875 C 2.585938 -6.015625 1.171875 -9.285156 1.171875 -13.109375 C 1.171875 -16.929688 2.585938 -20.207031 5.421875 -22.9375 C 8.253906 -25.664062 11.648438 -27.03125 15.609375 -27.03125 C 19.773438 -27.03125 23.164062 -25.828125 25.78125 -23.421875 C 28.394531 -21.015625 29.703125 -17.578125 29.703125 -13.109375 C 29.703125 -12.492188 29.679688 -12.082031 29.640625 -11.875 Z M 10.859375 -16.890625 L 20.84375 -16.890625 C 20.632812 -18.253906 20.09375 -19.300781 19.21875 -20.03125 C 18.351562 -20.769531 17.238281 -21.140625 15.875 -21.140625 C 14.375 -21.140625 13.175781 -20.75 12.28125 -19.96875 C 11.394531 -19.1875 10.921875 -18.160156 10.859375 -16.890625 Z M 10.859375 -16.890625 "/></g></g></g><g fill="#ffffff" fill-opacity="1"><g transform="translate(92.746943, 209.726552)"><g><path d="M 2.15625 0.078125 C 1.800781 0.078125 1.484375 0.0234375 1.203125 -0.078125 C 0.929688 -0.179688 0.675781 -0.34375 0.4375 -0.5625 C 0.332031 -0.644531 0.28125 -0.742188 0.28125 -0.859375 C 0.28125 -0.953125 0.3125 -1.03125 0.375 -1.09375 C 0.445312 -1.164062 0.53125 -1.203125 0.625 -1.203125 C 0.707031 -1.203125 0.773438 -1.175781 0.828125 -1.125 C 1.023438 -0.945312 1.226562 -0.8125 1.4375 -0.71875 C 1.644531 -0.632812 1.878906 -0.59375 2.140625 -0.59375 C 2.453125 -0.59375 2.710938 -0.664062 2.921875 -0.8125 C 3.128906 -0.957031 3.234375 -1.132812 3.234375 -1.34375 C 3.234375 -1.59375 3.128906 -1.785156 2.921875 -1.921875 C 2.710938 -2.066406 2.394531 -2.1875 1.96875 -2.28125 C 1.46875 -2.382812 1.082031 -2.550781 0.8125 -2.78125 C 0.539062 -3.019531 0.40625 -3.347656 0.40625 -3.765625 C 0.40625 -4.046875 0.476562 -4.296875 0.625 -4.515625 C 0.78125 -4.734375 0.992188 -4.898438 1.265625 -5.015625 C 1.535156 -5.128906 1.835938 -5.1875 2.171875 -5.1875 C 2.472656 -5.1875 2.753906 -5.140625 3.015625 -5.046875 C 3.285156 -4.953125 3.503906 -4.820312 3.671875 -4.65625 C 3.785156 -4.5625 3.84375 -4.457031 3.84375 -4.34375 C 3.84375 -4.257812 3.8125 -4.179688 3.75 -4.109375 C 3.6875 -4.035156 3.609375 -4 3.515625 -4 C 3.441406 -4 3.382812 -4.019531 3.34375 -4.0625 C 3.21875 -4.1875 3.039062 -4.289062 2.8125 -4.375 C 2.59375 -4.46875 2.378906 -4.515625 2.171875 -4.515625 C 1.847656 -4.515625 1.585938 -4.445312 1.390625 -4.3125 C 1.203125 -4.175781 1.109375 -4 1.109375 -3.78125 C 1.109375 -3.539062 1.203125 -3.359375 1.390625 -3.234375 C 1.585938 -3.109375 1.875 -3.003906 2.25 -2.921875 C 2.632812 -2.835938 2.945312 -2.738281 3.1875 -2.625 C 3.425781 -2.507812 3.609375 -2.351562 3.734375 -2.15625 C 3.867188 -1.957031 3.9375 -1.695312 3.9375 -1.375 C 3.9375 -1.09375 3.859375 -0.84375 3.703125 -0.625 C 3.546875 -0.40625 3.328125 -0.234375 3.046875 -0.109375 C 2.773438 0.015625 2.476562 0.078125 2.15625 0.078125 Z M 2.15625 0.078125 "/></g></g></g><g fill="#ffffff" fill-opacity="1"><g transform="translate(101.764032, 209.726552)"><g><path d="M 3.375 -3.828125 C 3.476562 -3.828125 3.5625 -3.789062 3.625 -3.71875 C 3.6875 -3.65625 3.71875 -3.578125 3.71875 -3.484375 L 3.71875 -1.53125 C 3.71875 -1.03125 3.578125 -0.640625 3.296875 -0.359375 C 3.015625 -0.078125 2.617188 0.0625 2.109375 0.0625 C 1.609375 0.0625 1.21875 -0.078125 0.9375 -0.359375 C 0.65625 -0.640625 0.515625 -1.03125 0.515625 -1.53125 L 0.515625 -3.484375 C 0.515625 -3.578125 0.546875 -3.65625 0.609375 -3.71875 C 0.679688 -3.789062 0.765625 -3.828125 0.859375 -3.828125 C 0.960938 -3.828125 1.046875 -3.789062 1.109375 -3.71875 C 1.179688 -3.65625 1.21875 -3.578125 1.21875 -3.484375 L 1.21875 -1.53125 C 1.21875 -0.894531 1.515625 -0.578125 2.109375 -0.578125 C 2.410156 -0.578125 2.640625 -0.65625 2.796875 -0.8125 C 2.953125 -0.976562 3.03125 -1.21875 3.03125 -1.53125 L 3.03125 -3.484375 C 3.03125 -3.578125 3.0625 -3.65625 3.125 -3.71875 C 3.1875 -3.789062 3.269531 -3.828125 3.375 -3.828125 Z M 3.375 -3.828125 "/></g></g></g><g fill="#ffffff" fill-opacity="1"><g transform="translate(110.766506, 209.726552)"><g><path d="M 2.1875 -3.921875 C 2.570312 -3.921875 2.890625 -3.859375 3.140625 -3.734375 C 3.398438 -3.609375 3.53125 -3.453125 3.53125 -3.265625 C 3.53125 -3.179688 3.503906 -3.109375 3.453125 -3.046875 C 3.398438 -2.984375 3.332031 -2.953125 3.25 -2.953125 C 3.1875 -2.953125 3.132812 -2.957031 3.09375 -2.96875 C 3.0625 -2.988281 3.015625 -3.023438 2.953125 -3.078125 C 2.921875 -3.097656 2.875 -3.128906 2.8125 -3.171875 C 2.75 -3.203125 2.664062 -3.226562 2.5625 -3.25 C 2.457031 -3.269531 2.359375 -3.28125 2.265625 -3.28125 C 2.015625 -3.28125 1.789062 -3.21875 1.59375 -3.09375 C 1.394531 -2.976562 1.242188 -2.816406 1.140625 -2.609375 C 1.035156 -2.398438 0.984375 -2.171875 0.984375 -1.921875 C 0.984375 -1.660156 1.035156 -1.425781 1.140625 -1.21875 C 1.242188 -1.019531 1.390625 -0.863281 1.578125 -0.75 C 1.765625 -0.632812 1.984375 -0.578125 2.234375 -0.578125 C 2.484375 -0.578125 2.6875 -0.613281 2.84375 -0.6875 C 2.875 -0.707031 2.921875 -0.738281 2.984375 -0.78125 C 3.035156 -0.820312 3.078125 -0.851562 3.109375 -0.875 C 3.148438 -0.894531 3.195312 -0.90625 3.25 -0.90625 C 3.34375 -0.90625 3.414062 -0.875 3.46875 -0.8125 C 3.53125 -0.75 3.5625 -0.671875 3.5625 -0.578125 C 3.5625 -0.472656 3.492188 -0.367188 3.359375 -0.265625 C 3.234375 -0.160156 3.0625 -0.078125 2.84375 -0.015625 C 2.625 0.046875 2.394531 0.078125 2.15625 0.078125 C 1.78125 0.078125 1.453125 -0.0078125 1.171875 -0.1875 C 0.890625 -0.363281 0.671875 -0.601562 0.515625 -0.90625 C 0.359375 -1.207031 0.28125 -1.546875 0.28125 -1.921875 C 0.28125 -2.296875 0.359375 -2.632812 0.515625 -2.9375 C 0.679688 -3.25 0.90625 -3.488281 1.1875 -3.65625 C 1.476562 -3.832031 1.8125 -3.921875 2.1875 -3.921875 Z M 2.1875 -3.921875 "/></g></g></g><g fill="#ffffff" fill-opacity="1"><g transform="translate(119.286702, 209.726552)"><g><path d="M 2.1875 -3.921875 C 2.570312 -3.921875 2.890625 -3.859375 3.140625 -3.734375 C 3.398438 -3.609375 3.53125 -3.453125 3.53125 -3.265625 C 3.53125 -3.179688 3.503906 -3.109375 3.453125 -3.046875 C 3.398438 -2.984375 3.332031 -2.953125 3.25 -2.953125 C 3.1875 -2.953125 3.132812 -2.957031 3.09375 -2.96875 C 3.0625 -2.988281 3.015625 -3.023438 2.953125 -3.078125 C 2.921875 -3.097656 2.875 -3.128906 2.8125 -3.171875 C 2.75 -3.203125 2.664062 -3.226562 2.5625 -3.25 C 2.457031 -3.269531 2.359375 -3.28125 2.265625 -3.28125 C 2.015625 -3.28125 1.789062 -3.21875 1.59375 -3.09375 C 1.394531 -2.976562 1.242188 -2.816406 1.140625 -2.609375 C 1.035156 -2.398438 0.984375 -2.171875 0.984375 -1.921875 C 0.984375 -1.660156 1.035156 -1.425781 1.140625 -1.21875 C 1.242188 -1.019531 1.390625 -0.863281 1.578125 -0.75 C 1.765625 -0.632812 1.984375 -0.578125 2.234375 -0.578125 C 2.484375 -0.578125 2.6875 -0.613281 2.84375 -0.6875 C 2.875 -0.707031 2.921875 -0.738281 2.984375 -0.78125 C 3.035156 -0.820312 3.078125 -0.851562 3.109375 -0.875 C 3.148438 -0.894531 3.195312 -0.90625 3.25 -0.90625 C 3.34375 -0.90625 3.414062 -0.875 3.46875 -0.8125 C 3.53125 -0.75 3.5625 -0.671875 3.5625 -0.578125 C 3.5625 -0.472656 3.492188 -0.367188 3.359375 -0.265625 C 3.234375 -0.160156 3.0625 -0.078125 2.84375 -0.015625 C 2.625 0.046875 2.394531 0.078125 2.15625 0.078125 C 1.78125 0.078125 1.453125 -0.0078125 1.171875 -0.1875 C 0.890625 -0.363281 0.671875 -0.601562 0.515625 -0.90625 C 0.359375 -1.207031 0.28125 -1.546875 0.28125 -1.921875 C 0.28125 -2.296875 0.359375 -2.632812 0.515625 -2.9375 C 0.679688 -3.25 0.90625 -3.488281 1.1875 -3.65625 C 1.476562 -3.832031 1.8125 -3.921875 2.1875 -3.921875 Z M 2.1875 -3.921875 "/></g></g></g><g fill="#ffffff" fill-opacity="1"><g transform="translate(127.806896, 209.726552)"><g><path d="M 3.890625 -2.0625 C 3.878906 -1.976562 3.835938 -1.90625 3.765625 -1.84375 C 3.703125 -1.78125 3.625 -1.75 3.53125 -1.75 L 0.953125 -1.75 C 0.992188 -1.394531 1.128906 -1.109375 1.359375 -0.890625 C 1.597656 -0.679688 1.890625 -0.578125 2.234375 -0.578125 C 2.460938 -0.578125 2.648438 -0.609375 2.796875 -0.671875 C 2.941406 -0.742188 3.070312 -0.832031 3.1875 -0.9375 C 3.257812 -0.976562 3.332031 -1 3.40625 -1 C 3.488281 -1 3.554688 -0.96875 3.609375 -0.90625 C 3.660156 -0.851562 3.6875 -0.785156 3.6875 -0.703125 C 3.6875 -0.609375 3.640625 -0.519531 3.546875 -0.4375 C 3.398438 -0.289062 3.207031 -0.164062 2.96875 -0.0625 C 2.738281 0.03125 2.503906 0.078125 2.265625 0.078125 C 1.867188 0.078125 1.519531 -0.00390625 1.21875 -0.171875 C 0.925781 -0.335938 0.695312 -0.566406 0.53125 -0.859375 C 0.363281 -1.160156 0.28125 -1.5 0.28125 -1.875 C 0.28125 -2.289062 0.363281 -2.648438 0.53125 -2.953125 C 0.707031 -3.265625 0.929688 -3.503906 1.203125 -3.671875 C 1.472656 -3.835938 1.769531 -3.921875 2.09375 -3.921875 C 2.40625 -3.921875 2.695312 -3.835938 2.96875 -3.671875 C 3.238281 -3.515625 3.457031 -3.296875 3.625 -3.015625 C 3.789062 -2.734375 3.878906 -2.414062 3.890625 -2.0625 Z M 2.09375 -3.28125 C 1.820312 -3.28125 1.582031 -3.203125 1.375 -3.046875 C 1.175781 -2.890625 1.046875 -2.648438 0.984375 -2.328125 L 3.140625 -2.328125 L 3.140625 -2.390625 C 3.117188 -2.648438 3.003906 -2.863281 2.796875 -3.03125 C 2.585938 -3.195312 2.351562 -3.28125 2.09375 -3.28125 Z M 2.09375 -3.28125 "/></g></g></g><g fill="#ffffff" fill-opacity="1"><g transform="translate(136.73629, 209.726552)"><g><path d="M 0.296875 -0.59375 C 0.253906 -0.664062 0.234375 -0.734375 0.234375 -0.796875 C 0.234375 -0.890625 0.285156 -0.972656 0.390625 -1.046875 C 0.429688 -1.078125 0.488281 -1.09375 0.5625 -1.09375 C 0.644531 -1.09375 0.722656 -1.054688 0.796875 -0.984375 C 0.941406 -0.816406 1.097656 -0.691406 1.265625 -0.609375 C 1.429688 -0.523438 1.632812 -0.484375 1.875 -0.484375 C 2.0625 -0.492188 2.222656 -0.535156 2.359375 -0.609375 C 2.503906 -0.691406 2.578125 -0.828125 2.578125 -1.015625 C 2.578125 -1.171875 2.503906 -1.289062 2.359375 -1.375 C 2.210938 -1.46875 2 -1.550781 1.71875 -1.625 C 1.445312 -1.695312 1.222656 -1.773438 1.046875 -1.859375 C 0.867188 -1.941406 0.71875 -2.054688 0.59375 -2.203125 C 0.46875 -2.359375 0.40625 -2.5625 0.40625 -2.8125 C 0.40625 -3.03125 0.46875 -3.222656 0.59375 -3.390625 C 0.71875 -3.554688 0.878906 -3.6875 1.078125 -3.78125 C 1.285156 -3.875 1.515625 -3.921875 1.765625 -3.921875 C 1.992188 -3.921875 2.222656 -3.875 2.453125 -3.78125 C 2.691406 -3.695312 2.882812 -3.566406 3.03125 -3.390625 C 3.082031 -3.316406 3.109375 -3.242188 3.109375 -3.171875 C 3.109375 -3.097656 3.070312 -3.023438 3 -2.953125 C 2.945312 -2.898438 2.882812 -2.875 2.8125 -2.875 C 2.726562 -2.875 2.660156 -2.90625 2.609375 -2.96875 C 2.503906 -3.082031 2.375 -3.171875 2.21875 -3.234375 C 2.070312 -3.296875 1.910156 -3.328125 1.734375 -3.328125 C 1.546875 -3.328125 1.382812 -3.289062 1.25 -3.21875 C 1.125 -3.144531 1.0625 -3.019531 1.0625 -2.84375 C 1.070312 -2.664062 1.144531 -2.535156 1.28125 -2.453125 C 1.425781 -2.367188 1.648438 -2.289062 1.953125 -2.21875 C 2.210938 -2.144531 2.425781 -2.066406 2.59375 -1.984375 C 2.769531 -1.910156 2.914062 -1.796875 3.03125 -1.640625 C 3.144531 -1.492188 3.203125 -1.296875 3.203125 -1.046875 C 3.203125 -0.816406 3.132812 -0.617188 3 -0.453125 C 2.875 -0.285156 2.703125 -0.15625 2.484375 -0.0625 C 2.273438 0.03125 2.050781 0.078125 1.8125 0.078125 C 1.507812 0.078125 1.226562 0.0234375 0.96875 -0.078125 C 0.707031 -0.191406 0.484375 -0.363281 0.296875 -0.59375 Z M 0.296875 -0.59375 "/></g></g></g><g fill="#ffffff" fill-opacity="1"><g transform="translate(144.986118, 209.726552)"><g><path d="M 0.296875 -0.59375 C 0.253906 -0.664062 0.234375 -0.734375 0.234375 -0.796875 C 0.234375 -0.890625 0.285156 -0.972656 0.390625 -1.046875 C 0.429688 -1.078125 0.488281 -1.09375 0.5625 -1.09375 C 0.644531 -1.09375 0.722656 -1.054688 0.796875 -0.984375 C 0.941406 -0.816406 1.097656 -0.691406 1.265625 -0.609375 C 1.429688 -0.523438 1.632812 -0.484375 1.875 -0.484375 C 2.0625 -0.492188 2.222656 -0.535156 2.359375 -0.609375 C 2.503906 -0.691406 2.578125 -0.828125 2.578125 -1.015625 C 2.578125 -1.171875 2.503906 -1.289062 2.359375 -1.375 C 2.210938 -1.46875 2 -1.550781 1.71875 -1.625 C 1.445312 -1.695312 1.222656 -1.773438 1.046875 -1.859375 C 0.867188 -1.941406 0.71875 -2.054688 0.59375 -2.203125 C 0.46875 -2.359375 0.40625 -2.5625 0.40625 -2.8125 C 0.40625 -3.03125 0.46875 -3.222656 0.59375 -3.390625 C 0.71875 -3.554688 0.878906 -3.6875 1.078125 -3.78125 C 1.285156 -3.875 1.515625 -3.921875 1.765625 -3.921875 C 1.992188 -3.921875 2.222656 -3.875 2.453125 -3.78125 C 2.691406 -3.695312 2.882812 -3.566406 3.03125 -3.390625 C 3.082031 -3.316406 3.109375 -3.242188 3.109375 -3.171875 C 3.109375 -3.097656 3.070312 -3.023438 3 -2.953125 C 2.945312 -2.898438 2.882812 -2.875 2.8125 -2.875 C 2.726562 -2.875 2.660156 -2.90625 2.609375 -2.96875 C 2.503906 -3.082031 2.375 -3.171875 2.21875 -3.234375 C 2.070312 -3.296875 1.910156 -3.328125 1.734375 -3.328125 C 1.546875 -3.328125 1.382812 -3.289062 1.25 -3.21875 C 1.125 -3.144531 1.0625 -3.019531 1.0625 -2.84375 C 1.070312 -2.664062 1.144531 -2.535156 1.28125 -2.453125 C 1.425781 -2.367188 1.648438 -2.289062 1.953125 -2.21875 C 2.210938 -2.144531 2.425781 -2.066406 2.59375 -1.984375 C 2.769531 -1.910156 2.914062 -1.796875 3.03125 -1.640625 C 3.144531 -1.492188 3.203125 -1.296875 3.203125 -1.046875 C 3.203125 -0.816406 3.132812 -0.617188 3 -0.453125 C 2.875 -0.285156 2.703125 -0.15625 2.484375 -0.0625 C 2.273438 0.03125 2.050781 0.078125 1.8125 0.078125 C 1.507812 0.078125 1.226562 0.0234375 0.96875 -0.078125 C 0.707031 -0.191406 0.484375 -0.363281 0.296875 -0.59375 Z M 0.296875 -0.59375 "/></g></g></g><g fill="#ffffff" fill-opacity="1"><g transform="translate(153.235946, 209.726552)"><g/></g></g><g fill="#ffffff" fill-opacity="1"><g transform="translate(160.024324, 209.726552)"><g><path d="M 0.296875 -0.59375 C 0.253906 -0.664062 0.234375 -0.734375 0.234375 -0.796875 C 0.234375 -0.890625 0.285156 -0.972656 0.390625 -1.046875 C 0.429688 -1.078125 0.488281 -1.09375 0.5625 -1.09375 C 0.644531 -1.09375 0.722656 -1.054688 0.796875 -0.984375 C 0.941406 -0.816406 1.097656 -0.691406 1.265625 -0.609375 C 1.429688 -0.523438 1.632812 -0.484375 1.875 -0.484375 C 2.0625 -0.492188 2.222656 -0.535156 2.359375 -0.609375 C 2.503906 -0.691406 2.578125 -0.828125 2.578125 -1.015625 C 2.578125 -1.171875 2.503906 -1.289062 2.359375 -1.375 C 2.210938 -1.46875 2 -1.550781 1.71875 -1.625 C 1.445312 -1.695312 1.222656 -1.773438 1.046875 -1.859375 C 0.867188 -1.941406 0.71875 -2.054688 0.59375 -2.203125 C 0.46875 -2.359375 0.40625 -2.5625 0.40625 -2.8125 C 0.40625 -3.03125 0.46875 -3.222656 0.59375 -3.390625 C 0.71875 -3.554688 0.878906 -3.6875 1.078125 -3.78125 C 1.285156 -3.875 1.515625 -3.921875 1.765625 -3.921875 C 1.992188 -3.921875 2.222656 -3.875 2.453125 -3.78125 C 2.691406 -3.695312 2.882812 -3.566406 3.03125 -3.390625 C 3.082031 -3.316406 3.109375 -3.242188 3.109375 -3.171875 C 3.109375 -3.097656 3.070312 -3.023438 3 -2.953125 C 2.945312 -2.898438 2.882812 -2.875 2.8125 -2.875 C 2.726562 -2.875 2.660156 -2.90625 2.609375 -2.96875 C 2.503906 -3.082031 2.375 -3.171875 2.21875 -3.234375 C 2.070312 -3.296875 1.910156 -3.328125 1.734375 -3.328125 C 1.546875 -3.328125 1.382812 -3.289062 1.25 -3.21875 C 1.125 -3.144531 1.0625 -3.019531 1.0625 -2.84375 C 1.070312 -2.664062 1.144531 -2.535156 1.28125 -2.453125 C 1.425781 -2.367188 1.648438 -2.289062 1.953125 -2.21875 C 2.210938 -2.144531 2.425781 -2.066406 2.59375 -1.984375 C 2.769531 -1.910156 2.914062 -1.796875 3.03125 -1.640625 C 3.144531 -1.492188 3.203125 -1.296875 3.203125 -1.046875 C 3.203125 -0.816406 3.132812 -0.617188 3 -0.453125 C 2.875 -0.285156 2.703125 -0.15625 2.484375 -0.0625 C 2.273438 0.03125 2.050781 0.078125 1.8125 0.078125 C 1.507812 0.078125 1.226562 0.0234375 0.96875 -0.078125 C 0.707031 -0.191406 0.484375 -0.363281 0.296875 -0.59375 Z M 0.296875 -0.59375 "/></g></g></g><g fill="#ffffff" fill-opacity="1"><g transform="translate(168.274153, 209.726552)"><g><path d="M 1.5625 -3.15625 L 1.5625 -0.96875 C 1.5625 -0.726562 1.671875 -0.609375 1.890625 -0.609375 C 1.921875 -0.609375 1.960938 -0.613281 2.015625 -0.625 C 2.078125 -0.644531 2.128906 -0.65625 2.171875 -0.65625 C 2.234375 -0.65625 2.285156 -0.628906 2.328125 -0.578125 C 2.367188 -0.523438 2.390625 -0.457031 2.390625 -0.375 C 2.390625 -0.269531 2.332031 -0.179688 2.21875 -0.109375 C 2.101562 -0.0351562 1.972656 0 1.828125 0 C 1.660156 0 1.507812 -0.015625 1.375 -0.046875 C 1.238281 -0.0859375 1.117188 -0.175781 1.015625 -0.3125 C 0.910156 -0.445312 0.859375 -0.65625 0.859375 -0.9375 L 0.859375 -3.15625 L 0.4375 -3.15625 C 0.34375 -3.15625 0.265625 -3.179688 0.203125 -3.234375 C 0.140625 -3.296875 0.109375 -3.375 0.109375 -3.46875 C 0.109375 -3.5625 0.140625 -3.632812 0.203125 -3.6875 C 0.265625 -3.75 0.34375 -3.78125 0.4375 -3.78125 L 0.859375 -3.78125 L 0.859375 -4.40625 C 0.859375 -4.5 0.890625 -4.578125 0.953125 -4.640625 C 1.023438 -4.710938 1.113281 -4.75 1.21875 -4.75 C 1.3125 -4.75 1.390625 -4.710938 1.453125 -4.640625 C 1.523438 -4.578125 1.5625 -4.5 1.5625 -4.40625 L 1.5625 -3.78125 L 2.171875 -3.78125 C 2.253906 -3.78125 2.328125 -3.75 2.390625 -3.6875 C 2.453125 -3.632812 2.484375 -3.5625 2.484375 -3.46875 C 2.484375 -3.375 2.453125 -3.296875 2.390625 -3.234375 C 2.328125 -3.179688 2.253906 -3.15625 2.171875 -3.15625 Z M 1.5625 -3.15625 "/></g></g></g><g fill="#ffffff" fill-opacity="1"><g transform="translate(175.815179, 209.726552)"><g><path d="M 3.625 -3.890625 C 3.726562 -3.890625 3.8125 -3.851562 3.875 -3.78125 C 3.945312 -3.71875 3.984375 -3.632812 3.984375 -3.53125 L 3.984375 -0.34375 C 3.984375 -0.25 3.945312 -0.164062 3.875 -0.09375 C 3.8125 -0.03125 3.726562 0 3.625 0 C 3.519531 0 3.4375 -0.03125 3.375 -0.09375 C 3.3125 -0.164062 3.28125 -0.25 3.28125 -0.34375 L 3.28125 -0.546875 C 3.15625 -0.367188 2.984375 -0.21875 2.765625 -0.09375 C 2.546875 0.0195312 2.3125 0.078125 2.0625 0.078125 C 1.726562 0.078125 1.425781 -0.00390625 1.15625 -0.171875 C 0.882812 -0.347656 0.671875 -0.585938 0.515625 -0.890625 C 0.359375 -1.203125 0.28125 -1.546875 0.28125 -1.921875 C 0.28125 -2.304688 0.359375 -2.648438 0.515625 -2.953125 C 0.671875 -3.253906 0.878906 -3.488281 1.140625 -3.65625 C 1.410156 -3.832031 1.707031 -3.921875 2.03125 -3.921875 C 2.289062 -3.921875 2.53125 -3.863281 2.75 -3.75 C 2.96875 -3.644531 3.144531 -3.507812 3.28125 -3.34375 L 3.28125 -3.53125 C 3.28125 -3.625 3.3125 -3.707031 3.375 -3.78125 C 3.4375 -3.851562 3.519531 -3.890625 3.625 -3.890625 Z M 2.140625 -0.578125 C 2.367188 -0.578125 2.570312 -0.632812 2.75 -0.75 C 2.925781 -0.863281 3.0625 -1.019531 3.15625 -1.21875 C 3.257812 -1.425781 3.3125 -1.660156 3.3125 -1.921875 C 3.3125 -2.171875 3.257812 -2.398438 3.15625 -2.609375 C 3.0625 -2.816406 2.925781 -2.976562 2.75 -3.09375 C 2.570312 -3.21875 2.367188 -3.28125 2.140625 -3.28125 C 1.910156 -3.28125 1.703125 -3.21875 1.515625 -3.09375 C 1.335938 -2.976562 1.195312 -2.816406 1.09375 -2.609375 C 1 -2.410156 0.953125 -2.179688 0.953125 -1.921875 C 0.953125 -1.660156 1 -1.425781 1.09375 -1.21875 C 1.195312 -1.019531 1.335938 -0.863281 1.515625 -0.75 C 1.703125 -0.632812 1.910156 -0.578125 2.140625 -0.578125 Z M 2.140625 -0.578125 "/></g></g></g><g fill="#ffffff" fill-opacity="1"><g transform="translate(185.066103, 209.726552)"><g><path d="M 2.421875 -3.921875 C 2.554688 -3.921875 2.664062 -3.882812 2.75 -3.8125 C 2.84375 -3.75 2.890625 -3.671875 2.890625 -3.578125 C 2.890625 -3.460938 2.859375 -3.375 2.796875 -3.3125 C 2.742188 -3.25 2.671875 -3.21875 2.578125 -3.21875 C 2.535156 -3.21875 2.472656 -3.234375 2.390625 -3.265625 C 2.285156 -3.296875 2.203125 -3.3125 2.140625 -3.3125 C 1.992188 -3.3125 1.847656 -3.257812 1.703125 -3.15625 C 1.554688 -3.050781 1.4375 -2.90625 1.34375 -2.71875 C 1.257812 -2.539062 1.21875 -2.335938 1.21875 -2.109375 L 1.21875 -0.34375 C 1.21875 -0.25 1.179688 -0.164062 1.109375 -0.09375 C 1.046875 -0.03125 0.960938 0 0.859375 0 C 0.753906 0 0.671875 -0.03125 0.609375 -0.09375 C 0.546875 -0.164062 0.515625 -0.25 0.515625 -0.34375 L 0.515625 -3.484375 C 0.515625 -3.578125 0.546875 -3.65625 0.609375 -3.71875 C 0.679688 -3.789062 0.765625 -3.828125 0.859375 -3.828125 C 0.960938 -3.828125 1.046875 -3.789062 1.109375 -3.71875 C 1.179688 -3.65625 1.21875 -3.578125 1.21875 -3.484375 L 1.21875 -3.109375 C 1.320312 -3.347656 1.476562 -3.539062 1.6875 -3.6875 C 1.90625 -3.832031 2.148438 -3.910156 2.421875 -3.921875 Z M 2.421875 -3.921875 "/></g></g></g><g fill="#ffffff" fill-opacity="1"><g transform="translate(192.848273, 209.726552)"><g><path d="M 1.5625 -3.15625 L 1.5625 -0.96875 C 1.5625 -0.726562 1.671875 -0.609375 1.890625 -0.609375 C 1.921875 -0.609375 1.960938 -0.613281 2.015625 -0.625 C 2.078125 -0.644531 2.128906 -0.65625 2.171875 -0.65625 C 2.234375 -0.65625 2.285156 -0.628906 2.328125 -0.578125 C 2.367188 -0.523438 2.390625 -0.457031 2.390625 -0.375 C 2.390625 -0.269531 2.332031 -0.179688 2.21875 -0.109375 C 2.101562 -0.0351562 1.972656 0 1.828125 0 C 1.660156 0 1.507812 -0.015625 1.375 -0.046875 C 1.238281 -0.0859375 1.117188 -0.175781 1.015625 -0.3125 C 0.910156 -0.445312 0.859375 -0.65625 0.859375 -0.9375 L 0.859375 -3.15625 L 0.4375 -3.15625 C 0.34375 -3.15625 0.265625 -3.179688 0.203125 -3.234375 C 0.140625 -3.296875 0.109375 -3.375 0.109375 -3.46875 C 0.109375 -3.5625 0.140625 -3.632812 0.203125 -3.6875 C 0.265625 -3.75 0.34375 -3.78125 0.4375 -3.78125 L 0.859375 -3.78125 L 0.859375 -4.40625 C 0.859375 -4.5 0.890625 -4.578125 0.953125 -4.640625 C 1.023438 -4.710938 1.113281 -4.75 1.21875 -4.75 C 1.3125 -4.75 1.390625 -4.710938 1.453125 -4.640625 C 1.523438 -4.578125 1.5625 -4.5 1.5625 -4.40625 L 1.5625 -3.78125 L 2.171875 -3.78125 C 2.253906 -3.78125 2.328125 -3.75 2.390625 -3.6875 C 2.453125 -3.632812 2.484375 -3.5625 2.484375 -3.46875 C 2.484375 -3.375 2.453125 -3.296875 2.390625 -3.234375 C 2.328125 -3.179688 2.253906 -3.15625 2.171875 -3.15625 Z M 1.5625 -3.15625 "/></g></g></g><g fill="#ffffff" fill-opacity="1"><g transform="translate(200.3893, 209.726552)"><g><path d="M 0.296875 -0.59375 C 0.253906 -0.664062 0.234375 -0.734375 0.234375 -0.796875 C 0.234375 -0.890625 0.285156 -0.972656 0.390625 -1.046875 C 0.429688 -1.078125 0.488281 -1.09375 0.5625 -1.09375 C 0.644531 -1.09375 0.722656 -1.054688 0.796875 -0.984375 C 0.941406 -0.816406 1.097656 -0.691406 1.265625 -0.609375 C 1.429688 -0.523438 1.632812 -0.484375 1.875 -0.484375 C 2.0625 -0.492188 2.222656 -0.535156 2.359375 -0.609375 C 2.503906 -0.691406 2.578125 -0.828125 2.578125 -1.015625 C 2.578125 -1.171875 2.503906 -1.289062 2.359375 -1.375 C 2.210938 -1.46875 2 -1.550781 1.71875 -1.625 C 1.445312 -1.695312 1.222656 -1.773438 1.046875 -1.859375 C 0.867188 -1.941406 0.71875 -2.054688 0.59375 -2.203125 C 0.46875 -2.359375 0.40625 -2.5625 0.40625 -2.8125 C 0.40625 -3.03125 0.46875 -3.222656 0.59375 -3.390625 C 0.71875 -3.554688 0.878906 -3.6875 1.078125 -3.78125 C 1.285156 -3.875 1.515625 -3.921875 1.765625 -3.921875 C 1.992188 -3.921875 2.222656 -3.875 2.453125 -3.78125 C 2.691406 -3.695312 2.882812 -3.566406 3.03125 -3.390625 C 3.082031 -3.316406 3.109375 -3.242188 3.109375 -3.171875 C 3.109375 -3.097656 3.070312 -3.023438 3 -2.953125 C 2.945312 -2.898438 2.882812 -2.875 2.8125 -2.875 C 2.726562 -2.875 2.660156 -2.90625 2.609375 -2.96875 C 2.503906 -3.082031 2.375 -3.171875 2.21875 -3.234375 C 2.070312 -3.296875 1.910156 -3.328125 1.734375 -3.328125 C 1.546875 -3.328125 1.382812 -3.289062 1.25 -3.21875 C 1.125 -3.144531 1.0625 -3.019531 1.0625 -2.84375 C 1.070312 -2.664062 1.144531 -2.535156 1.28125 -2.453125 C 1.425781 -2.367188 1.648438 -2.289062 1.953125 -2.21875 C 2.210938 -2.144531 2.425781 -2.066406 2.59375 -1.984375 C 2.769531 -1.910156 2.914062 -1.796875 3.03125 -1.640625 C 3.144531 -1.492188 3.203125 -1.296875 3.203125 -1.046875 C 3.203125 -0.816406 3.132812 -0.617188 3 -0.453125 C 2.875 -0.285156 2.703125 -0.15625 2.484375 -0.0625 C 2.273438 0.03125 2.050781 0.078125 1.8125 0.078125 C 1.507812 0.078125 1.226562 0.0234375 0.96875 -0.078125 C 0.707031 -0.191406 0.484375 -0.363281 0.296875 -0.59375 Z M 0.296875 -0.59375 "/></g></g></g><g fill="#ffffff" fill-opacity="1"><g transform="translate(208.639133, 209.726552)"><g/></g></g><g fill="#ffffff" fill-opacity="1"><g transform="translate(215.427515, 209.726552)"><g><path d="M 5 -3.875 C 5.09375 -3.875 5.171875 -3.835938 5.234375 -3.765625 C 5.296875 -3.703125 5.328125 -3.617188 5.328125 -3.515625 C 5.328125 -3.484375 5.316406 -3.4375 5.296875 -3.375 L 4.1875 -0.21875 C 4.15625 -0.144531 4.101562 -0.0859375 4.03125 -0.046875 C 3.96875 -0.00390625 3.894531 0.0078125 3.8125 0 C 3.6875 -0.0078125 3.585938 -0.0820312 3.515625 -0.21875 L 2.75 -2.203125 L 2.0625 -0.21875 C 2.03125 -0.144531 1.984375 -0.0859375 1.921875 -0.046875 C 1.867188 -0.015625 1.8125 0 1.75 0 C 1.675781 0.0078125 1.601562 -0.00390625 1.53125 -0.046875 C 1.46875 -0.0859375 1.421875 -0.144531 1.390625 -0.21875 L 0.265625 -3.375 C 0.242188 -3.414062 0.234375 -3.460938 0.234375 -3.515625 C 0.234375 -3.609375 0.265625 -3.691406 0.328125 -3.765625 C 0.398438 -3.835938 0.484375 -3.875 0.578125 -3.875 C 0.742188 -3.875 0.851562 -3.800781 0.90625 -3.65625 L 1.78125 -1.1875 L 2.46875 -3 C 2.53125 -3.144531 2.640625 -3.21875 2.796875 -3.21875 C 2.941406 -3.21875 3.039062 -3.144531 3.09375 -3 L 3.796875 -1.21875 L 4.65625 -3.65625 C 4.707031 -3.800781 4.820312 -3.875 5 -3.875 Z M 5 -3.875 "/></g></g></g><g fill="#ffffff" fill-opacity="1"><g transform="translate(225.752599, 209.726552)"><g><path d="M 1.171875 -0.34375 C 1.171875 -0.25 1.140625 -0.164062 1.078125 -0.09375 C 1.015625 -0.03125 0.929688 0 0.828125 0 C 0.734375 0 0.648438 -0.03125 0.578125 -0.09375 C 0.515625 -0.164062 0.484375 -0.25 0.484375 -0.34375 L 0.484375 -3.515625 C 0.484375 -3.609375 0.515625 -3.691406 0.578125 -3.765625 C 0.648438 -3.835938 0.734375 -3.875 0.828125 -3.875 C 0.929688 -3.875 1.015625 -3.835938 1.078125 -3.765625 C 1.140625 -3.691406 1.171875 -3.609375 1.171875 -3.515625 Z M 0.828125 -4.34375 C 0.691406 -4.34375 0.59375 -4.367188 0.53125 -4.421875 C 0.46875 -4.472656 0.4375 -4.554688 0.4375 -4.671875 L 0.4375 -4.796875 C 0.4375 -4.910156 0.46875 -4.988281 0.53125 -5.03125 C 0.601562 -5.082031 0.707031 -5.109375 0.84375 -5.109375 C 0.976562 -5.109375 1.078125 -5.082031 1.140625 -5.03125 C 1.203125 -4.976562 1.234375 -4.898438 1.234375 -4.796875 L 1.234375 -4.671875 C 1.234375 -4.554688 1.195312 -4.472656 1.125 -4.421875 C 1.0625 -4.367188 0.960938 -4.34375 0.828125 -4.34375 Z M 0.828125 -4.34375 "/></g></g></g><g fill="#ffffff" fill-opacity="1"><g transform="translate(232.175619, 209.726552)"><g><path d="M 1.5625 -3.15625 L 1.5625 -0.96875 C 1.5625 -0.726562 1.671875 -0.609375 1.890625 -0.609375 C 1.921875 -0.609375 1.960938 -0.613281 2.015625 -0.625 C 2.078125 -0.644531 2.128906 -0.65625 2.171875 -0.65625 C 2.234375 -0.65625 2.285156 -0.628906 2.328125 -0.578125 C 2.367188 -0.523438 2.390625 -0.457031 2.390625 -0.375 C 2.390625 -0.269531 2.332031 -0.179688 2.21875 -0.109375 C 2.101562 -0.0351562 1.972656 0 1.828125 0 C 1.660156 0 1.507812 -0.015625 1.375 -0.046875 C 1.238281 -0.0859375 1.117188 -0.175781 1.015625 -0.3125 C 0.910156 -0.445312 0.859375 -0.65625 0.859375 -0.9375 L 0.859375 -3.15625 L 0.4375 -3.15625 C 0.34375 -3.15625 0.265625 -3.179688 0.203125 -3.234375 C 0.140625 -3.296875 0.109375 -3.375 0.109375 -3.46875 C 0.109375 -3.5625 0.140625 -3.632812 0.203125 -3.6875 C 0.265625 -3.75 0.34375 -3.78125 0.4375 -3.78125 L 0.859375 -3.78125 L 0.859375 -4.40625 C 0.859375 -4.5 0.890625 -4.578125 0.953125 -4.640625 C 1.023438 -4.710938 1.113281 -4.75 1.21875 -4.75 C 1.3125 -4.75 1.390625 -4.710938 1.453125 -4.640625 C 1.523438 -4.578125 1.5625 -4.5 1.5625 -4.40625 L 1.5625 -3.78125 L 2.171875 -3.78125 C 2.253906 -3.78125 2.328125 -3.75 2.390625 -3.6875 C 2.453125 -3.632812 2.484375 -3.5625 2.484375 -3.46875 C 2.484375 -3.375 2.453125 -3.296875 2.390625 -3.234375 C 2.328125 -3.179688 2.253906 -3.15625 2.171875 -3.15625 Z M 1.5625 -3.15625 "/></g></g></g><g fill="#ffffff" fill-opacity="1"><g transform="translate(239.716645, 209.726552)"><g><path d="M 2.421875 -3.890625 C 3.285156 -3.890625 3.71875 -3.359375 3.71875 -2.296875 L 3.71875 -0.34375 C 3.71875 -0.25 3.679688 -0.164062 3.609375 -0.09375 C 3.546875 -0.03125 3.460938 0 3.359375 0 C 3.265625 0 3.179688 -0.03125 3.109375 -0.09375 C 3.046875 -0.164062 3.015625 -0.25 3.015625 -0.34375 L 3.015625 -2.296875 C 3.015625 -2.929688 2.75 -3.25 2.21875 -3.25 C 1.925781 -3.25 1.6875 -3.15625 1.5 -2.96875 C 1.3125 -2.789062 1.21875 -2.566406 1.21875 -2.296875 L 1.21875 -0.34375 C 1.21875 -0.25 1.179688 -0.164062 1.109375 -0.09375 C 1.046875 -0.03125 0.960938 0 0.859375 0 C 0.753906 0 0.671875 -0.03125 0.609375 -0.09375 C 0.546875 -0.164062 0.515625 -0.25 0.515625 -0.34375 L 0.515625 -5.0625 C 0.515625 -5.15625 0.546875 -5.234375 0.609375 -5.296875 C 0.679688 -5.367188 0.765625 -5.40625 0.859375 -5.40625 C 0.960938 -5.40625 1.046875 -5.367188 1.109375 -5.296875 C 1.179688 -5.234375 1.21875 -5.15625 1.21875 -5.0625 L 1.21875 -3.203125 C 1.332031 -3.398438 1.5 -3.5625 1.71875 -3.6875 C 1.945312 -3.820312 2.179688 -3.890625 2.421875 -3.890625 Z M 2.421875 -3.890625 "/></g></g></g><g fill="#ffffff" fill-opacity="1"><g transform="translate(248.7118, 209.726552)"><g/></g></g><g fill="#ffffff" fill-opacity="1"><g transform="translate(255.500174, 209.726552)"><g><path d="M 3.625 -3.890625 C 3.726562 -3.890625 3.8125 -3.851562 3.875 -3.78125 C 3.945312 -3.71875 3.984375 -3.632812 3.984375 -3.53125 L 3.984375 -0.34375 C 3.984375 -0.25 3.945312 -0.164062 3.875 -0.09375 C 3.8125 -0.03125 3.726562 0 3.625 0 C 3.519531 0 3.4375 -0.03125 3.375 -0.09375 C 3.3125 -0.164062 3.28125 -0.25 3.28125 -0.34375 L 3.28125 -0.546875 C 3.15625 -0.367188 2.984375 -0.21875 2.765625 -0.09375 C 2.546875 0.0195312 2.3125 0.078125 2.0625 0.078125 C 1.726562 0.078125 1.425781 -0.00390625 1.15625 -0.171875 C 0.882812 -0.347656 0.671875 -0.585938 0.515625 -0.890625 C 0.359375 -1.203125 0.28125 -1.546875 0.28125 -1.921875 C 0.28125 -2.304688 0.359375 -2.648438 0.515625 -2.953125 C 0.671875 -3.253906 0.878906 -3.488281 1.140625 -3.65625 C 1.410156 -3.832031 1.707031 -3.921875 2.03125 -3.921875 C 2.289062 -3.921875 2.53125 -3.863281 2.75 -3.75 C 2.96875 -3.644531 3.144531 -3.507812 3.28125 -3.34375 L 3.28125 -3.53125 C 3.28125 -3.625 3.3125 -3.707031 3.375 -3.78125 C 3.4375 -3.851562 3.519531 -3.890625 3.625 -3.890625 Z M 2.140625 -0.578125 C 2.367188 -0.578125 2.570312 -0.632812 2.75 -0.75 C 2.925781 -0.863281 3.0625 -1.019531 3.15625 -1.21875 C 3.257812 -1.425781 3.3125 -1.660156 3.3125 -1.921875 C 3.3125 -2.171875 3.257812 -2.398438 3.15625 -2.609375 C 3.0625 -2.816406 2.925781 -2.976562 2.75 -3.09375 C 2.570312 -3.21875 2.367188 -3.28125 2.140625 -3.28125 C 1.910156 -3.28125 1.703125 -3.21875 1.515625 -3.09375 C 1.335938 -2.976562 1.195312 -2.816406 1.09375 -2.609375 C 1 -2.410156 0.953125 -2.179688 0.953125 -1.921875 C 0.953125 -1.660156 1 -1.425781 1.09375 -1.21875 C 1.195312 -1.019531 1.335938 -0.863281 1.515625 -0.75 C 1.703125 -0.632812 1.910156 -0.578125 2.140625 -0.578125 Z M 2.140625 -0.578125 "/></g></g></g><g fill="#ffffff" fill-opacity="1"><g transform="translate(264.751088, 209.726552)"><g/></g></g><g fill="#ffffff" fill-opacity="1"><g transform="translate(271.539462, 209.726552)"><g><path d="M 2.4375 -3.890625 C 2.769531 -3.890625 3.070312 -3.804688 3.34375 -3.640625 C 3.613281 -3.472656 3.820312 -3.238281 3.96875 -2.9375 C 4.125 -2.632812 4.203125 -2.296875 4.203125 -1.921875 C 4.203125 -1.535156 4.125 -1.191406 3.96875 -0.890625 C 3.820312 -0.597656 3.613281 -0.363281 3.34375 -0.1875 C 3.070312 -0.0195312 2.773438 0.0625 2.453125 0.0625 C 2.203125 0.0625 1.96875 0.0078125 1.75 -0.09375 C 1.53125 -0.207031 1.351562 -0.347656 1.21875 -0.515625 L 1.21875 1.109375 C 1.21875 1.203125 1.179688 1.285156 1.109375 1.359375 C 1.046875 1.429688 0.960938 1.46875 0.859375 1.46875 C 0.765625 1.46875 0.679688 1.429688 0.609375 1.359375 C 0.546875 1.296875 0.515625 1.210938 0.515625 1.109375 L 0.515625 -3.484375 C 0.515625 -3.585938 0.546875 -3.671875 0.609375 -3.734375 C 0.671875 -3.804688 0.753906 -3.84375 0.859375 -3.84375 C 0.960938 -3.84375 1.046875 -3.804688 1.109375 -3.734375 C 1.179688 -3.671875 1.21875 -3.585938 1.21875 -3.484375 L 1.21875 -3.28125 C 1.332031 -3.445312 1.5 -3.585938 1.71875 -3.703125 C 1.945312 -3.828125 2.1875 -3.890625 2.4375 -3.890625 Z M 2.359375 -0.578125 C 2.585938 -0.578125 2.789062 -0.632812 2.96875 -0.75 C 3.144531 -0.863281 3.285156 -1.019531 3.390625 -1.21875 C 3.492188 -1.425781 3.546875 -1.660156 3.546875 -1.921875 C 3.546875 -2.171875 3.492188 -2.394531 3.390625 -2.59375 C 3.285156 -2.800781 3.144531 -2.960938 2.96875 -3.078125 C 2.789062 -3.191406 2.585938 -3.25 2.359375 -3.25 C 2.128906 -3.25 1.925781 -3.191406 1.75 -3.078125 C 1.570312 -2.960938 1.429688 -2.800781 1.328125 -2.59375 C 1.222656 -2.394531 1.171875 -2.171875 1.171875 -1.921875 C 1.171875 -1.660156 1.222656 -1.425781 1.328125 -1.21875 C 1.429688 -1.019531 1.570312 -0.863281 1.75 -0.75 C 1.925781 -0.632812 2.128906 -0.578125 2.359375 -0.578125 Z M 2.359375 -0.578125 "/></g></g></g><g fill="#ffffff" fill-opacity="1"><g transform="translate(280.790376, 209.726552)"><g><path d="M 1.265625 -0.34375 C 1.265625 -0.25 1.226562 -0.164062 1.15625 -0.09375 C 1.09375 -0.03125 1.015625 0 0.921875 0 C 0.828125 0 0.742188 -0.03125 0.671875 -0.09375 C 0.609375 -0.164062 0.578125 -0.25 0.578125 -0.34375 L 0.578125 -5.0625 C 0.578125 -5.15625 0.609375 -5.234375 0.671875 -5.296875 C 0.742188 -5.367188 0.828125 -5.40625 0.921875 -5.40625 C 1.023438 -5.40625 1.109375 -5.367188 1.171875 -5.296875 C 1.234375 -5.234375 1.265625 -5.15625 1.265625 -5.0625 Z M 1.265625 -0.34375 "/></g></g></g><g fill="#ffffff" fill-opacity="1"><g transform="translate(287.403381, 209.726552)"><g><path d="M 3.625 -3.890625 C 3.726562 -3.890625 3.8125 -3.851562 3.875 -3.78125 C 3.945312 -3.71875 3.984375 -3.632812 3.984375 -3.53125 L 3.984375 -0.34375 C 3.984375 -0.25 3.945312 -0.164062 3.875 -0.09375 C 3.8125 -0.03125 3.726562 0 3.625 0 C 3.519531 0 3.4375 -0.03125 3.375 -0.09375 C 3.3125 -0.164062 3.28125 -0.25 3.28125 -0.34375 L 3.28125 -0.546875 C 3.15625 -0.367188 2.984375 -0.21875 2.765625 -0.09375 C 2.546875 0.0195312 2.3125 0.078125 2.0625 0.078125 C 1.726562 0.078125 1.425781 -0.00390625 1.15625 -0.171875 C 0.882812 -0.347656 0.671875 -0.585938 0.515625 -0.890625 C 0.359375 -1.203125 0.28125 -1.546875 0.28125 -1.921875 C 0.28125 -2.304688 0.359375 -2.648438 0.515625 -2.953125 C 0.671875 -3.253906 0.878906 -3.488281 1.140625 -3.65625 C 1.410156 -3.832031 1.707031 -3.921875 2.03125 -3.921875 C 2.289062 -3.921875 2.53125 -3.863281 2.75 -3.75 C 2.96875 -3.644531 3.144531 -3.507812 3.28125 -3.34375 L 3.28125 -3.53125 C 3.28125 -3.625 3.3125 -3.707031 3.375 -3.78125 C 3.4375 -3.851562 3.519531 -3.890625 3.625 -3.890625 Z M 2.140625 -0.578125 C 2.367188 -0.578125 2.570312 -0.632812 2.75 -0.75 C 2.925781 -0.863281 3.0625 -1.019531 3.15625 -1.21875 C 3.257812 -1.425781 3.3125 -1.660156 3.3125 -1.921875 C 3.3125 -2.171875 3.257812 -2.398438 3.15625 -2.609375 C 3.0625 -2.816406 2.925781 -2.976562 2.75 -3.09375 C 2.570312 -3.21875 2.367188 -3.28125 2.140625 -3.28125 C 1.910156 -3.28125 1.703125 -3.21875 1.515625 -3.09375 C 1.335938 -2.976562 1.195312 -2.816406 1.09375 -2.609375 C 1 -2.410156 0.953125 -2.179688 0.953125 -1.921875 C 0.953125 -1.660156 1 -1.425781 1.09375 -1.21875 C 1.195312 -1.019531 1.335938 -0.863281 1.515625 -0.75 C 1.703125 -0.632812 1.910156 -0.578125 2.140625 -0.578125 Z M 2.140625 -0.578125 "/></g></g></g><g fill="#ffffff" fill-opacity="1"><g transform="translate(296.654295, 209.726552)"><g><path d="M 2.46875 -3.921875 C 3.34375 -3.921875 3.78125 -3.394531 3.78125 -2.34375 L 3.78125 -0.34375 C 3.78125 -0.25 3.75 -0.164062 3.6875 -0.09375 C 3.625 -0.03125 3.539062 0 3.4375 0 C 3.34375 0 3.257812 -0.03125 3.1875 -0.09375 C 3.125 -0.164062 3.09375 -0.25 3.09375 -0.34375 L 3.09375 -2.328125 C 3.09375 -2.617188 3.023438 -2.847656 2.890625 -3.015625 C 2.765625 -3.191406 2.550781 -3.28125 2.25 -3.28125 C 2.050781 -3.28125 1.875 -3.234375 1.71875 -3.140625 C 1.5625 -3.054688 1.4375 -2.941406 1.34375 -2.796875 C 1.257812 -2.660156 1.21875 -2.503906 1.21875 -2.328125 L 1.21875 -0.34375 C 1.21875 -0.25 1.179688 -0.164062 1.109375 -0.09375 C 1.046875 -0.03125 0.960938 0 0.859375 0 C 0.753906 0 0.671875 -0.03125 0.609375 -0.09375 C 0.546875 -0.164062 0.515625 -0.25 0.515625 -0.34375 L 0.515625 -3.484375 C 0.515625 -3.578125 0.546875 -3.65625 0.609375 -3.71875 C 0.679688 -3.789062 0.765625 -3.828125 0.859375 -3.828125 C 0.960938 -3.828125 1.046875 -3.789062 1.109375 -3.71875 C 1.179688 -3.65625 1.21875 -3.578125 1.21875 -3.484375 L 1.21875 -3.21875 C 1.34375 -3.414062 1.515625 -3.582031 1.734375 -3.71875 C 1.960938 -3.851562 2.207031 -3.921875 2.46875 -3.921875 Z M 2.46875 -3.921875 "/></g></g></g><g clip-path="url(#f2dab248e9)"><path fill="#ffffff" d="M 313.457031 155.292969 C 309.625 155.292969 306.507812 158.410156 306.507812 162.242188 C 306.507812 166.074219 309.625 169.191406 313.457031 169.191406 C 317.289062 169.191406 320.40625 166.074219 320.40625 162.242188 C 320.40625 158.410156 317.289062 155.292969 313.457031 155.292969 Z M 313.457031 170.117188 C 312.394531 170.117188 311.363281 169.90625 310.390625 169.496094 C 309.453125 169.101562 308.613281 168.53125 307.890625 167.808594 C 307.164062 167.085938 306.597656 166.242188 306.203125 165.304688 C 305.789062 164.335938 305.582031 163.304688 305.582031 162.242188 C 305.582031 161.175781 305.789062 160.144531 306.203125 159.175781 C 306.597656 158.238281 307.164062 157.394531 307.890625 156.671875 C 308.613281 155.949219 309.453125 155.378906 310.390625 154.984375 C 311.363281 154.574219 312.394531 154.363281 313.457031 154.363281 C 314.519531 154.363281 315.550781 154.574219 316.523438 154.984375 C 317.460938 155.378906 318.304688 155.949219 319.027344 156.671875 C 319.75 157.394531 320.316406 158.238281 320.714844 159.175781 C 321.125 160.144531 321.332031 161.175781 321.332031 162.242188 C 321.332031 163.304688 321.125 164.335938 320.714844 165.304688 C 320.316406 166.242188 319.75 167.085938 319.027344 167.808594 C 318.304688 168.53125 317.460938 169.101562 316.523438 169.496094 C 315.550781 169.90625 314.519531 170.117188 313.457031 170.117188 " fill-opacity="1" fill-rule="nonzero"/></g><path fill="#ffffff" d="M 308.183594 160.566406 L 309.828125 160.566406 L 309.828125 164.882812 L 310.949219 164.882812 L 310.949219 160.566406 L 312.589844 160.566406 L 312.589844 159.597656 L 308.183594 159.597656 L 308.183594 160.566406 " fill-opacity="1" fill-rule="nonzero"/><path fill="#ffffff" d="M 317.074219 159.597656 L 316.171875 162.097656 C 316.042969 162.457031 315.929688 162.796875 315.832031 163.121094 C 315.726562 162.757812 315.613281 162.410156 315.492188 162.085938 L 314.589844 159.597656 L 313.128906 159.597656 L 313.128906 164.882812 L 314.25 164.882812 L 314.25 162.203125 C 314.25 161.976562 314.246094 161.738281 314.234375 161.488281 C 314.285156 161.640625 314.335938 161.792969 314.390625 161.941406 L 315.46875 164.882812 L 316.203125 164.882812 L 317.28125 161.941406 C 317.335938 161.792969 317.386719 161.640625 317.4375 161.484375 C 317.429688 161.746094 317.421875 161.988281 317.421875 162.207031 L 317.421875 164.882812 L 318.542969 164.882812 L 318.542969 159.597656 L 317.074219 159.597656 " fill-opacity="1" fill-rule="nonzero"/><g clip-path="url(#d66a76213f)"><g clip-path="url(#e1666cfdbf)"><path fill="#eda284" d="M 25.664062 154.363281 L 76.316406 154.363281 L 76.316406 165.117188 L 25.664062 165.117188 Z M 25.664062 154.363281 " fill-opacity="1" fill-rule="nonzero"/></g></g><g clip-path="url(#94cd20eb20)"><g clip-path="url(#9789836601)"><path fill="#eda284" d="M 32.847656 169.851562 L 76.265625 169.851562 L 76.265625 180.605469 L 32.847656 180.605469 Z M 32.847656 169.851562 " fill-opacity="1" fill-rule="nonzero"/></g></g><g clip-path="url(#2c52608a59)"><g clip-path="url(#7c3219780d)"><path fill="#eda284" d="M 44.074219 185.34375 L 76.328125 185.34375 L 76.328125 196.09375 L 44.074219 196.09375 Z M 44.074219 185.34375 " fill-opacity="1" fill-rule="nonzero"/></g></g><g clip-path="url(#4363a15a75)"><g clip-path="url(#f9c585e4f8)"><path fill="#eda284" d="M 50.808594 200.832031 L 76.238281 200.832031 L 76.238281 211.582031 L 50.808594 211.582031 Z M 50.808594 200.832031 " fill-opacity="1" fill-rule="nonzero"/></g></g></svg>